<svg xmlns="http://www.w3.org/2000/svg" width="250" height="250" viewBox="0 0 250 250" fill="none">
<path d="M56.7406 90.5006H65.0177V132.961C65.0177 137.798 66.3076 141.561 68.78 144.248C71.2524 146.936 74.6923 148.225 79.0996 148.225C83.6144 148.225 87.2692 146.936 89.8491 144.248C92.4289 141.668 93.7189 137.798 93.7189 132.854C93.7189 128.124 92.3215 124.362 89.5266 121.674C86.7317 118.879 83.0769 117.589 78.4546 117.589C74.5848 117.589 71.2524 118.664 68.3501 120.922V112.645C71.6824 110.817 75.4447 109.85 79.3146 109.85C85.8717 109.85 91.2465 112 95.5463 116.192C99.8461 120.384 101.996 125.974 101.996 132.961C101.996 140.271 99.7386 145.968 95.3313 149.945C90.8165 154.03 85.2268 155.965 78.4546 155.965C72.0049 155.965 66.7376 153.923 62.7603 149.73C58.783 145.538 56.7406 139.948 56.7406 132.961V90.5006Z" fill="#2F45AA"/>
<path d="M149.079 155.75H132.955C126.075 155.75 121.13 154.675 118.12 152.633C115.433 150.806 113.713 148.656 113.068 146.183C112.316 143.711 111.993 140.379 111.993 136.294V111.032H120.163V136.186C120.163 137.261 120.163 138.229 120.27 138.981C120.378 139.734 120.593 140.701 120.915 141.991C121.238 143.173 121.775 144.141 122.528 145.001C123.173 145.753 124.248 146.506 125.538 147.043C126.828 147.688 128.44 147.903 130.267 147.903H140.909V111.032H149.079V155.75Z" fill="#2F45AA"/>
<path d="M184.445 110.925H193.474L182.187 130.381C183.8 131.026 185.735 131.994 187.669 133.606C193.797 139.088 193.797 147.258 193.689 148.87V155.535H185.52V148.763C185.52 144.571 184.337 141.346 181.865 139.088C179.392 136.831 175.952 135.649 171.33 135.649C169.933 135.649 168.428 135.756 166.923 135.971V155.535H158.753V90.5006H166.923V128.769C169.503 128.446 172.19 128.446 174.77 128.769L184.445 110.925Z" fill="#2F45AA"/>
<path d="M46.7436 125.544C46.7436 128.016 44.7012 130.059 42.2288 130.059C39.7564 130.059 37.714 128.016 37.714 125.544C37.714 123.071 39.7564 121.029 42.2288 121.029C44.7012 121.029 46.7436 122.964 46.7436 125.544Z" fill="#2F45AA"/>
<path d="M212.501 125.544C212.501 128.016 210.459 130.059 207.986 130.059C205.514 130.059 203.471 128.016 203.471 125.544C203.471 123.071 205.514 121.029 207.986 121.029C210.566 121.029 212.501 122.964 212.501 125.544Z" fill="#2F45AA"/>
<path d="M223.251 56.5325L135.535 5.79487C132.202 3.85996 128.547 3 124.893 3C121.238 3 117.583 3.96746 114.25 5.79487L26.642 56.5325C20.0848 60.2949 16 67.2821 16 74.8067V176.067C16 183.592 20.0848 190.686 26.642 194.449L114.358 245.079C117.583 247.014 121.345 247.874 125 247.874C128.655 247.874 132.31 246.906 135.642 245.079L223.358 194.449C229.915 190.686 234 183.699 234 176.067V74.8067C233.893 67.2821 229.808 60.2949 223.251 56.5325ZM224.325 176.175C224.325 180.367 222.068 184.237 218.521 186.279L130.805 236.909C129.085 237.984 127.042 238.522 125 238.522C122.958 238.522 120.915 237.984 119.195 236.909L31.4793 186.279C27.932 184.237 25.6746 180.367 25.6746 176.175V74.8067C25.6746 70.6144 27.932 66.7446 31.4793 64.7022L119.195 14.072C121.023 12.997 122.958 12.4596 125 12.4596C127.042 12.4596 129.085 12.997 130.805 14.072L218.521 64.7022C222.068 66.7446 224.325 70.6144 224.325 74.8067V176.175Z" fill="#2F45AA"/>
</svg>